<svg xmlns="http://www.w3.org/2000/svg" width="200" height="200" class="icon" viewBox="0 0 1024 1024"><path fill="#0D9488" d="M512 152c60 0 100 50 100 110s-40 110-100 110-100-50-100-110 40-110 100-110z"/><path fill="#14B8A6" d="M512 552c60 0 100-50 100-110s-40-110-100-110-100 50-100 110 40 110 100 110z"/><path fill="#0D9488" d="M312 352c0-60 50-100 110-100s110 40 110 100-50 100-110 100-110-40-110-100z"/><path fill="#14B8A6" d="M712 352c0-60-50-100-110-100s-110 40-110 100 50 100 110 100 110-40 110-100z"/></svg>
